Coordinates
version=1
nRows=10
nColumns=40
inDegrees=yes

Units are S.I. units (second, meters, Newtons, ...)
Angles are in degrees.

endheader
time	pelvis_tilt	pelvis_list	pelvis_rotation	pelvis_tx	pelvis_ty	pelvis_tz	hip_flexion_r	hip_adduction_r	hip_rotation_r	knee_angle_r	knee_angle_r_beta	ankle_angle_r	subtalar_angle_r	mtp_angle_r	hip_flexion_l	hip_adduction_l	hip_rotation_l	knee_angle_l	knee_angle_l_beta	ankle_angle_l	subtalar_angle_l	mtp_angle_l	lumbar_extension	lumbar_bending	lumbar_rotation	arm_flex_r	arm_add_r	arm_rot_r	elbow_flex_r	pro_sup_r	wrist_flex_r	wrist_dev_r	arm_flex_l	arm_add_l	arm_rot_l	elbow_flex_l	pro_sup_l	wrist_flex_l	wrist_dev_l
      2.19000000	     -0.95994406	     10.34105021	     -3.86777463	      0.52607250	      0.95358429	     -1.04100571	      9.32319500	    -24.96808584	    -14.63225989	    -57.59793872	     -1.00527367	     -3.39616923	    -15.56694396	     11.25332203	     11.81265866	    -11.33835274	     13.97541905	    -14.69936763	     -0.25655236	      1.66125384	     10.32625313	      1.82948768	     -0.23921357	    -10.99219405	      5.27908831	      1.87526446	    -11.25724657	    -12.46311172	     22.36572548	     89.95437384	      0.00000000	      0.00000000	     -4.27044168	     10.30891128	     12.47274055	     13.77088691	     89.95437384	      0.00000000	      0.00000000
      2.20000000	     -0.93226785	     10.05623664	     -4.02736826	      0.53383333	      0.95472650	     -1.04216906	     10.70633751	    -24.51721651	    -14.20526208	    -58.15220455	     -1.01494744	     -2.55391630	    -16.39630712	     11.24841974	     10.87731544	    -11.20184539	     14.16334124	    -14.04822781	     -0.24518783	      1.92047443	     10.01860633	      1.74541218	     -0.43003170	    -10.63846305	      4.99283948	      1.74393581	    -11.19776975	    -12.29676025	     21.85255710	     89.95437384	      0.00000000	      0.00000000	     -3.42873887	     10.24235801	     12.38006060	     14.56220026	     89.95437384	      0.00000000	      0.00000000
      2.21000000	     -0.96532246	      9.76354718	     -3.90463872	      0.54149318	      0.95576025	     -1.04389579	     11.96464665	    -24.21468547	    -14.27914267	    -58.47375566	     -1.02055956	     -2.13988074	    -16.56081455	     11.13353543	     10.13653866	    -11.05908737	     14.53896701	    -13.67207895	     -0.23862279	      2.17424342	      9.84303743	      1.67961678	     -0.61475395	    -10.24485294	      4.40907852	      1.47961729	    -11.14493188	    -12.19267693	     21.66455408	     89.95437384	      0.00000000	      0.00000000	     -2.53306390	     10.19872335	     12.21951925	     15.23971349	     89.95437384	      0.00000000	      0.00000000
      2.22000000	     -0.90997603	      9.40229039	     -4.13891108	      0.54903461	      0.95688101	     -1.04475365	     13.23451437	    -23.41978528	    -13.59110113	    -58.54051769	     -1.02172478	     -1.02393453	    -17.22225537	     11.21482567	      9.07947945	    -10.85471860	     14.48653411	    -12.81455724	     -0.22365622	      2.38779459	      9.27124149	      1.57512924	     -0.83624073	     -9.81275632	      4.19856082	      1.39912242	    -11.12914975	    -11.96097535	     21.10493104	     89.95437384	      0.00000000	      0.00000000	     -1.73473810	     10.20483555	     11.78522464	     16.24668815	     89.95437384	      0.00000000	      0.00000000
      2.23000000	     -0.81749895	      9.01916389	     -4.11740017	      0.55646230	      0.95804027	     -1.04583670	     14.26367742	    -22.75299048	    -13.45638596	    -58.35325024	     -1.01845635	     -0.12877237	    -17.39574806	     11.58853706	      8.08039785	    -10.58880434	     14.72333590	    -12.14546534	     -0.21197836	      2.41556754	      8.62415567	      1.44530023	     -1.17276921	     -9.36369616	      3.73416363	      1.22188067	    -11.08560604	    -11.77288555	     20.78701001	     89.95437384	      0.00000000	      0.00000000	     -0.93722505	     10.31244648	     10.96229511	     17.29168375	     89.95437384	      0.00000000	      0.00000000
      2.24000000	     -0.30849466	      8.46983632	     -3.91216128	      0.56444534	      0.95984550	     -1.04701500	     14.46603229	    -22.00732798	    -13.84390885	    -57.75341830	     -1.00798730	      0.61682046	    -17.44527344	     13.31706079	      6.66434905	    -10.12916149	     15.08237453	    -11.68986852	     -0.20402669	      2.48735568	      7.54400211	      0.97547948	     -1.95126613	     -8.74397833	      3.17726762	      0.91492535	    -11.06778301	    -11.85385738	     20.65681782	     89.95437384	      0.00000000	      0.00000000	     -0.13729773	     10.58079189	      9.10067142	     18.45574076	     89.95437384	      0.00000000	      0.00000000
      2.25000000	     -0.44827897	      8.11501384	     -3.69212956	      0.57164619	      0.96045591	     -1.04832232	     15.66763213	    -21.37435475	    -13.85925412	    -57.29150014	     -0.99992531	      1.20111124	    -17.38325546	     13.43301025	      6.09727856	     -9.88782913	     14.90397144	    -11.34307554	     -0.19797402	      2.67912128	      7.16537225	      0.80589697	     -2.04882781	     -8.29431716	      2.56886884	      0.74206465	    -11.04922959	    -11.70754493	     20.36325286	     89.95437384	      0.00000000	      0.00000000	      0.76264742	     10.66967572	      8.76219813	     19.28391570	     89.95437384	      0.00000000	      0.00000000
      2.26000000	     -0.58606941	      7.91555865	     -3.42687367	      0.57889399	      0.96090376	     -1.04975733	     16.84227194	    -21.03138680	    -14.11202477	    -56.65418568	     -0.98880208	      1.55818575	    -17.23477373	     13.35477384	      5.62871033	     -9.79188440	     15.01240756	    -11.15702881	     -0.19472689	      2.87537141	      6.97917350	      0.71016741	     -2.11792480	     -8.00057749	      1.91052964	      0.49454652	    -11.01275539	    -11.64773170	     20.27526407	     89.95437384	      0.00000000	      0.00000000	      1.70959347	     10.76868725	      8.52956080	     20.00890715	     89.95437384	      0.00000000	      0.00000000
      2.27000000	     -0.27640606	      7.21690761	     -2.90157519	      0.58641804	      0.96220783	     -1.05090793	     17.02486271	    -20.07401072	    -14.77359912	    -55.51322391	     -0.96888854	      1.98319527	    -17.23804723	     14.14330668	      4.50041359	     -9.19461669	     14.37746165	    -10.80288125	     -0.18854585	      3.04944922	      6.48147842	      0.25055673	     -2.74775686	     -7.22236048	      1.03128400	      0.32852625	    -10.94054438	    -11.88551944	     20.06041539	     89.95437384	      0.00000000	      0.00000000	      2.51062859	     11.10067741	      7.07640923	     21.17208773	     89.95437384	      0.00000000	      0.00000000
      2.28000000	     -0.51405528	      7.09542146	     -2.60751004	      0.59355797	      0.96225420	     -1.05230367	     18.25946166	    -19.79691057	    -14.96246078	    -54.60513190	     -0.95303934	      2.24479365	    -16.94623304	     14.02102929	      4.18297852	     -9.16980061	     14.46045954	    -10.66837622	     -0.18619829	      3.26176185	      6.29740045	      0.14837126	     -2.69563405	     -6.99553245	      0.38939129	      0.05654630	    -10.89580403	    -11.87421563	     19.96993370	     89.95437384	      0.00000000	      0.00000000	      3.44542435	     11.24182847	      6.86005875	     21.90094433	     89.95437384	      0.00000000	      0.00000000
